<?xml version="1.0" standalone="no"?>
<!DOCTYPE svg PUBLIC "-//W3C//DTD SVG 20010904//EN"
 "http://www.w3.org/TR/2001/REC-SVG-20010904/DTD/svg10.dtd">
<svg version="1.0" xmlns="http://www.w3.org/2000/svg"
 width="16.000000pt" height="16.000000pt" viewBox="0 0 16.000000 16.000000"
 preserveAspectRatio="xMidYMid meet">
<metadata>
Created by potrace 1.11, written by Peter Selinger 2001-2013
</metadata>
<g transform="translate(0.000000,16.000000) scale(0.003125,-0.003125)"
fill="#000000" stroke="none">
<path d="M1007 4764 c-1 -1 -29 -5 -62 -9 -225 -25 -360 -107 -390 -239 -15
-62 -8 -113 23 -173 21 -40 104 -146 147 -188 45 -43 53 -63 43 -108 -14 -65
-67 -163 -144 -267 -124 -167 -162 -230 -268 -445 -129 -261 -225 -573 -251
-815 -1 -14 -6 -56 -10 -95 -9 -81 -10 -313 -1 -377 3 -23 8 -65 11 -93 3 -27
8 -57 10 -65 2 -8 7 -31 10 -50 16 -95 80 -281 132 -385 236 -466 652 -785
1249 -959 121 -35 319 -79 404 -91 25 -3 56 -8 70 -10 14 -2 49 -7 78 -10 28
-3 76 -8 105 -11 165 -19 572 -19 807 1 46 3 87 8 90 10 3 2 34 6 70 10 121
12 389 69 500 106 36 11 73 23 83 25 37 7 257 99 352 148 55 28 106 50 112 49
7 0 11 2 8 6 -2 4 10 16 28 26 44 25 200 139 245 178 63 55 146 141 200 206
186 223 322 533 356 814 3 26 9 68 12 94 8 62 8 293 0 368 -14 125 -17 152
-32 235 -27 154 -101 405 -154 525 -56 127 -138 288 -185 365 -32 52 -65 108
-74 125 -9 16 -21 34 -27 40 -21 20 -64 84 -64 94 0 6 -4 11 -8 11 -4 0 -25
23 -46 51 -70 95 -114 223 -85 252 13 13 95 105 138 156 40 46 73 128 76 188
7 122 -73 214 -227 261 -64 20 -91 25 -207 42 -66 9 -139 2 -225 -21 -107 -29
-177 -74 -345 -222 -88 -78 -126 -97 -181 -91 -94 11 -187 54 -337 155 -197
133 -297 170 -472 174 -183 4 -290 -33 -510 -180 -144 -95 -252 -144 -330
-150 -61 -4 -103 21 -231 139 -137 125 -276 189 -433 199 -32 1 -59 2 -60 1z
m126 -363 c39 -15 101 -59 173 -122 83 -74 98 -85 141 -112 223 -138 477 -99
807 123 156 104 177 113 283 118 117 6 151 -7 306 -111 120 -81 279 -167 308
-167 8 0 19 -4 25 -9 16 -15 156 -43 219 -43 147 0 248 48 425 206 47 41 106
87 132 101 49 27 127 39 172 27 l25 -7 -38 -40 c-127 -135 -151 -282 -77 -484
30 -83 77 -163 151 -262 277 -365 447 -774 492 -1184 10 -86 10 -320 0 -397
-62 -516 -376 -901 -917 -1125 -167 -69 -440 -144 -615 -167 -22 -3 -76 -10
-120 -16 -124 -17 -264 -24 -460 -24 -195 0 -405 11 -510 28 -22 3 -58 9 -80
12 -22 3 -85 14 -140 25 -388 79 -677 207 -930 410 -65 53 -93 80 -180 180
-136 154 -254 432 -282 664 -21 178 -1 488 41 650 1 6 6 26 10 45 11 51 44
159 60 200 8 19 24 62 37 95 61 165 199 411 324 579 107 145 134 198 182 351
21 68 24 93 20 166 -6 102 -33 165 -103 239 -24 26 -44 50 -44 53 0 17 117 16
163 -2z"/>
<path d="M2148 3629 c-15 -4 -48 -29 -73 -55 -25 -27 -45 -45 -45 -42 0 4 -11
-4 -25 -18 -40 -40 -136 -80 -198 -83 -102 -4 -225 45 -318 128 -70 62 -106
59 -191 -13 -87 -74 -155 -105 -253 -116 -68 -7 -82 -12 -102 -35 -31 -35 -30
-84 2 -119 13 -14 30 -26 37 -27 129 -11 236 18 352 96 l67 45 74 -45 c194
-118 396 -130 582 -36 33 16 74 42 91 56 l32 27 67 -44 c63 -41 114 -68 138
-74 6 -1 29 -7 52 -13 57 -16 164 -14 258 4 55 10 152 57 205 99 l43 34 46
-38 c123 -101 321 -139 500 -95 71 17 164 66 211 110 l25 23 36 -31 c73 -63
212 -117 304 -117 18 0 36 -6 38 -12 4 -10 6 -10 6 0 1 6 9 12 19 12 11 0 30
9 43 21 19 16 24 31 24 65 0 63 -25 84 -111 94 -38 5 -83 13 -100 18 -45 14
-113 60 -143 95 -71 86 -77 90 -116 90 -31 0 -44 -6 -67 -34 -68 -80 -102
-110 -156 -136 -50 -25 -68 -28 -152 -28 -88 0 -101 3 -162 33 -43 21 -90 56
-130 96 -92 93 -144 96 -206 10 -56 -78 -185 -144 -280 -144 -74 0 -219 50
-206 71 3 5 -2 6 -11 3 -10 -4 -34 14 -74 55 -64 67 -93 82 -133 70z"/>
<path d="M3355 2953 c-57 -14 -97 -79 -88 -140 6 -35 61 -92 91 -94 110 -8
179 90 127 179 -27 45 -78 67 -130 55z"/>
<path d="M2387 2659 c-62 -10 -83 -27 -100 -78 -14 -44 -16 -146 -3 -187 4
-15 -4 -23 -32 -37 -122 -61 -275 -193 -317 -274 -11 -21 -24 -41 -29 -44 -19
-15 -136 6 -189 33 -40 20 -107 80 -107 96 0 19 -90 100 -136 123 -42 21 -63
24 -149 24 -60 0 -108 -5 -120 -12 -16 -10 -17 -12 -4 -13 20 0 136 -60 195
-101 56 -38 104 -103 104 -140 0 -16 -14 -56 -31 -90 -39 -76 -48 -136 -25
-171 21 -31 93 -71 171 -94 80 -22 135 -75 135 -128 0 -52 -23 -91 -72 -120
-24 -14 -38 -26 -33 -27 6 0 28 -3 50 -6 22 -3 77 -6 122 -7 69 0 87 3 110 21
42 31 37 85 -17 171 -44 69 -53 108 -29 123 29 18 57 9 78 -23 24 -39 98 -112
162 -159 41 -31 194 -111 261 -138 l27 -10 -23 -42 c-34 -58 -27 -104 20 -145
33 -29 39 -30 85 -23 54 9 122 51 166 103 28 33 28 33 118 34 166 2 304 60
420 178 186 187 225 443 104 683 -46 92 -140 192 -221 236 -29 15 -66 41 -82
57 -148 142 -406 222 -609 187z m634 -512 c29 -24 47 -69 41 -104 -2 -13 -17
-36 -33 -53 -42 -41 -96 -42 -141 -1 -28 25 -33 36 -33 76 0 40 5 51 33 76 41
37 95 39 133 6z"/>
<path d="M3685 2591 c-63 -38 -81 -100 -49 -167 25 -53 98 -83 152 -63 72 27
100 91 75 170 -9 27 -18 47 -21 44 -3 -2 -16 5 -30 15 -31 25 -88 26 -127 1z"/>
</g>
</svg>
